# xmcd
#
# Track frame offsets:
#	150
#	4736
#	25875
#	43959
#	62014
#	82452
#	101297
#	118889
#	137971
#	141498
#	159755
#	176086
#	198063
#	217207
#	232710
#	251446
#	279528
#
# Disc length: 3868 seconds
#
# Revision: 0
# Processed by: cddbd v1.5.1PL2 Copyright (c) Steve Scherf et al.
# Submitted via: dBpowerAMP V4.0
#
DISCID=f60f1a11
DTITLE=YoungBloodz - Ev'rybody Know Me
DYEAR=2005
DGENRE=Rap
TTITLE0=Intro
TTITLE1=Chop Chop
TTITLE2=Presidential
TTITLE3=Datz Me - (with Young Buck)
TTITLE4=Excuse Me Shawty - (with Lil' Scrappy)
TTITLE5=Ev'rybody Know Me
TTITLE6=What Tha Biz (If I) - (with Mannie Fresh)
TTITLE7=Haterproof - (with Proverb)
TTITLE8=Interlude - V.I.P.
TTITLE9=Spending Some Change - (with Cutty)
TTITLE10=It's Good - (with T-Boz)
TTITLE11=Play Ur Position - (with Jazze Pha/Mr. Mo)
TTITLE12=Sum'n Like A P*** - (with Ben Hated)
TTITLE13=Diamond Rings - (with Daz)
TTITLE14=Grown Man - (with Shawty Putt)
TTITLE15=Presidential - (Tha remix, with Akon)
TTITLE16=DATA
EXTD=
EXTT0=
EXTT1=
EXTT2=
EXTT3=
EXTT4=
EXTT5=
EXTT6=
EXTT7=
EXTT8=
EXTT9=
EXTT10=
EXTT11=
EXTT12=
EXTT13=
EXTT14=
EXTT15=
EXTT16=
PLAYORDER=
